<svg width="25" height="25" viewBox="0 0 25 25" fill="none" xmlns="http://www.w3.org/2000/svg">
<path d="M5.9375 10.9375C6.5625 11.1458 7.29167 11.2917 8.125 11.375C8.125 11.375 10 11.5625 9.1875 9.37496C8.375 7.18746 7.5 3.74996 8.75 1.87496C10 -3.82662e-05 11.875 0.624961 13.125 2.49996L13.25 2.68746C13.4167 2.97913 13.5417 3.22913 13.625 3.43746C13.625 3.43746 13.875 4.56246 13.9375 3.12496C14 1.68746 12.1875 0.312462 11.25 0.124962C10.3125 -0.0625382 9.1875 0.124962 8.125 1.56246C7.0625 2.99996 7.1875 6.24996 8.25 9.37496L8.375 9.68746C8.625 10.3125 8.33333 10.625 7.5 10.625C6.66667 10.625 6.14583 10.6667 5.9375 10.75C5.72917 10.7917 5.72917 10.8542 5.9375 10.9375Z" fill="white"/>
<path d="M9.26517 6.52322C9.49228 7.14165 9.83322 7.80249 10.288 8.50574C10.288 8.50574 11.3112 10.0881 12.5139 8.08835C13.7166 6.08863 15.8572 3.26021 18.1024 3.06734C20.3476 2.87447 21.0289 4.72974 20.3434 6.87642L20.2748 7.09108C20.1509 7.4033 20.0335 7.65696 19.9226 7.85206C19.9226 7.85206 19.1994 8.74931 20.3618 7.90133C21.5243 7.05334 21.4681 4.779 21.0297 3.92935C20.5914 3.0797 19.743 2.31747 17.9567 2.38393C16.1703 2.45039 13.7084 4.57569 11.929 7.35568L11.7628 7.64833C11.4303 8.23363 11.0041 8.20065 10.4842 7.54938C9.96431 6.89812 9.60681 6.51707 9.4117 6.40624C9.24917 6.26942 9.20032 6.30842 9.26517 6.52322Z" fill="white"/>
<path d="M14.8013 6.37423C14.4587 6.93694 14.1537 7.61515 13.8865 8.40885C13.8865 8.40885 13.2851 10.1947 15.5988 9.89103C17.9124 9.5874 21.4585 9.5019 23.0071 11.1389C24.5558 12.776 23.5279 14.4641 21.4212 15.264L21.2105 15.344C20.889 15.4413 20.6174 15.5074 20.3957 15.5421C20.3957 15.5421 19.2433 15.5346 20.6306 15.9165C22.0178 16.2983 23.7628 14.8385 24.1548 13.9665C24.5469 13.0946 24.6153 11.9561 23.4513 10.5995C22.2873 9.24288 19.0914 8.63917 15.8081 8.97719L15.4755 9.02927C14.8105 9.13343 14.571 8.77936 14.7571 7.96706C14.9431 7.15476 15.0188 6.63777 14.984 6.41609C14.9899 6.20371 14.929 6.18976 14.8013 6.37423Z" fill="white"/>
<path d="M18.3613 10.6035C17.7078 10.6868 16.9875 10.8716 16.2005 11.1579C16.2005 11.1579 14.4296 11.802 16.1104 13.4208C17.7912 15.0396 20.0703 17.7576 19.7571 19.9891C19.4438 22.2207 17.4833 22.4707 15.5438 21.3232L15.3499 21.2085C15.0732 21.018 14.8522 20.8469 14.6867 20.6953C14.6867 20.6953 13.9736 19.79 14.5407 21.1124C15.1077 22.4348 17.3372 22.8878 18.2633 22.6502C19.1893 22.4126 20.1218 21.7558 20.4558 19.9997C20.7898 18.2436 19.2677 15.3693 16.9552 13.0142L16.707 12.7869C16.2107 12.3321 16.338 11.924 17.0889 11.5627C17.8398 11.2013 18.291 10.9379 18.4426 10.7724C18.6123 10.6445 18.5852 10.5882 18.3613 10.6035Z" fill="white"/>
<path d="M17.2772 16.024C16.8044 15.5653 16.2106 15.1177 15.4958 14.6812C15.4958 14.6812 13.8876 13.6991 13.6711 16.0226C13.4546 18.346 12.7523 21.8229 10.8129 22.9704C8.87344 24.1178 7.45495 22.7415 7.14172 20.5099L7.1104 20.2868C7.0867 19.9517 7.08248 19.6722 7.09774 19.4484C7.09774 19.4484 7.36033 18.3262 6.68063 19.5944C6.00093 20.8626 7.03785 22.8876 7.8013 23.4631C8.56475 24.0386 9.65977 24.3575 11.2405 23.523C12.8213 22.6885 14.1181 19.7058 14.5158 16.4291L14.5387 16.0933C14.5845 15.4217 14.9828 15.2666 15.7337 15.628C16.4846 15.9894 16.972 16.1777 17.1959 16.193C17.4017 16.2458 17.4288 16.1895 17.2772 16.024Z" fill="white"/>
<path d="M12.3643 18.5586C12.4279 17.9029 12.4072 17.1596 12.3024 16.3287C12.3024 16.3287 12.0666 14.4591 10.1157 15.7395C8.16482 17.0198 5.00943 18.6402 2.90269 17.8403C0.79595 17.0404 0.986583 15.0732 2.53519 13.4362L2.69006 13.2725C2.93715 13.0449 3.15294 12.8673 3.33741 12.7395C3.33741 12.7395 4.3782 12.2447 2.96303 12.5047C1.54786 12.7647 0.612203 14.8384 0.638733 15.7941C0.665262 16.7498 1.09918 17.8045 2.73761 18.5193C4.37603 19.2341 7.51609 18.3866 10.325 16.6533L10.6017 16.4617C11.1551 16.0785 11.5248 16.293 11.7109 17.1053C11.8969 17.9176 12.0538 18.416 12.1816 18.6005C12.2687 18.7942 12.3296 18.7803 12.3643 18.5586Z" fill="white"/>
<path d="M7.31138 16.2922C7.86412 15.9338 8.433 15.4549 9.01803 14.8556C9.01803 14.8556 10.3343 13.5072 8.11786 12.7775C5.90138 12.0477 2.66901 10.587 1.98351 8.44035C1.29801 6.29368 2.95623 5.21825 5.20143 5.41112L5.42595 5.43041C5.75788 5.48212 6.03124 5.5404 6.24605 5.60525C6.24605 5.60525 7.28123 6.11173 6.19678 5.16606C5.11234 4.22039 2.90697 4.77906 2.17555 5.39476C1.44413 6.01046 0.8888 7.00665 1.34936 8.73384C1.80992 10.461 4.42785 12.3909 7.53297 13.5102L7.85518 13.6074C8.4996 13.802 8.56186 14.2249 8.04196 14.8761C7.52206 15.5274 7.22969 15.9604 7.16484 16.1753C7.06743 16.3641 7.11628 16.4031 7.31138 16.2922Z" fill="white"/>
</svg>
